HIERARCHY
ROOT Hips
{
  OFFSET 53.0225 84.3128 4.15482
  CHANNELS 6 Xposition Yposition Zposition Zrotation Xrotation Yrotation
  JOINT spine
  {
    OFFSET 0 5.95438 0.342407
    CHANNELS 3 Zrotation Xrotation Yrotation
    JOINT spine1
    {
      OFFSET 0 8.85602 0
      CHANNELS 3 Zrotation Xrotation Yrotation
      JOINT spine2
      {
        OFFSET 0 8.48567 0
        CHANNELS 3 Zrotation Xrotation Yrotation
        JOINT Neck
        {
          OFFSET 0 21.7863 1.0387
          CHANNELS 3 Zrotation Xrotation Yrotation
          JOINT Head
          {
            OFFSET 0 6.5822 0
            CHANNELS 3 Zrotation Xrotation Yrotation
            End Site
            {
              OFFSET 0 15.9326 -5.25436
            }
          }
        }
        JOINT RightShoulder
        {
          OFFSET -3.57307 9.16386 -0.497525
          CHANNELS 3 Zrotation Xrotation Yrotation
          JOINT RightArm
          {
            OFFSET 0 12.0192 0
            CHANNELS 3 Zrotation Xrotation Yrotation
            JOINT RightArmRoll
            {
              OFFSET 0 6.06755 0
              CHANNELS 3 Zrotation Xrotation Yrotation
              JOINT RightForeArm
              {
                OFFSET 0 17.6726 0
                CHANNELS 3 Zrotation Xrotation Yrotation
                JOINT RightForeArmRoll
                {
                  OFFSET 0 6.80872 0
                  CHANNELS 3 Zrotation Xrotation Yrotation
                  JOINT RightHand
                  {
                    OFFSET 0 13.6636 0
                    CHANNELS 3 Zrotation Xrotation Yrotation
                    End Site
                    {
                      OFFSET 0 0 0
                    }
                  }
                }
              }
            }
          }
        }
        JOINT LeftShoulder
        {
          OFFSET 3.57307 9.16386 -0.497525
          CHANNELS 3 Zrotation Xrotation Yrotation
          JOINT LeftArm
          {
            OFFSET 0 12.0192 0
            CHANNELS 3 Zrotation Xrotation Yrotation
            JOINT LeftArmRoll
            {
              OFFSET 0 6.06755 0
              CHANNELS 3 Zrotation Xrotation Yrotation
              JOINT LeftForeArm
              {
                OFFSET 0 17.6726 0
                CHANNELS 3 Zrotation Xrotation Yrotation
                JOINT LeftForeArmRoll
                {
                  OFFSET 0 6.80872 0
                  CHANNELS 3 Zrotation Xrotation Yrotation
                  JOINT LeftHand
                  {
                    OFFSET 0 13.6636 0
                    CHANNELS 3 Zrotation Xrotation Yrotation
                    End Site
                    {
                      OFFSET 0 0 0
                    }
                  }
                }
              }
            }
          }
        }
      }
    }
  }
  JOINT RightUpLeg
  {
    OFFSET -5.27774 -0.967797 -0.811858
    CHANNELS 3 Zrotation Xrotation Yrotation
    JOINT RightUpLegRoll
    {
      OFFSET 0 16.0214 0
      CHANNELS 3 Zrotation Xrotation Yrotation
      JOINT RightLeg
      {
        OFFSET 0 -19.8401 0
        CHANNELS 3 Zrotation Xrotation Yrotation
        JOINT RightLegRoll
        {
          OFFSET 0 19.905 0
          CHANNELS 3 Zrotation Xrotation Yrotation
          JOINT RightFoot
          {
            OFFSET 0 16.5675 0
            CHANNELS 3 Zrotation Xrotation Yrotation
            JOINT RightToeBase
            {
              OFFSET 0 13.8496 0
              CHANNELS 3 Zrotation Xrotation Yrotation
              End Site
              {
                OFFSET 0.00587034 6.70728 -0.773116
              }
            }
          }
        }
      }
    }
  }
  JOINT LeftUpLeg
  {
    OFFSET 5.27774 -0.967797 -0.811858
    CHANNELS 3 Zrotation Xrotation Yrotation
    JOINT LeftUpLegRoll
    {
      OFFSET 0 16.0215 0
      CHANNELS 3 Zrotation Xrotation Yrotation
      JOINT LeftLeg
      {
        OFFSET 0 19.84 0
        CHANNELS 3 Zrotation Xrotation Yrotation
        JOINT LeftLegRoll
        {
          OFFSET 0 20.089 0
          CHANNELS 3 Zrotation Xrotation Yrotation
          JOINT LeftFoot
          {
            OFFSET 0 16.3835 0
            CHANNELS 3 Zrotation Xrotation Yrotation
            JOINT LeftToeBase
            {
              OFFSET 0 13.8496 0
              CHANNELS 3 Zrotation Xrotation Yrotation
              End Site
              {
                OFFSET -0.0263083 6.70728 -0.773117
              }
            }
          }
        }
      }
    }
  }
}
MOTION
Frames: 12
Frame Time: 0.00208333
53.3623 84.308 3.29426 2.61071 -10.8759 -0.160602 -0.313704 -0.70762 0.0565508 -0.627738 2.5871 0.153165 -0.630241 4.23211 0.161218 -16.0085 13.6694 -1.9347 16.2849 1.08323 -6.33167 66.4483 2.2399 0.354485 122.481 38.6167 -47.7254 3.18055e-015 -6.36111e-015 3.18055e-015 -20.6238 84.2471 15.8986 -7.09223e-007 1.29698e-006 -2.99999 8.03008 -4.95138 0.697637 -70.8556 -6.10227 4.32569 -122.393 39.7777 45.4554 3.18055e-015 -1.59028e-014 6.36111e-015 20.5457 84.2337 -15.8174 -8.13489e-007 -7.53161e-006 3 -8.03011 -4.9514 -0.697625 176.418 -3.06798 5.30502 180 7.01531e-015 178.854 176.906 12.905 179.945 3.73657e-006 3.15474e-006 0.213971 -20.466 70.1287 21.4873 8.13649 25.2327 -3.48774 177.133 -5.68624 1.3282 4.54188e-006 -4.6773e-006 -1.16876 -2.25806 -8.79049 0.0557498 -1.5855e-006 5.05481e-006 -0.119541 19.187 68.7731 -20.1776 -8.13649 25.2327 3.48774 
53.3638 84.3061 3.29565 2.61637 -10.8678 -0.157765 -0.316998 -0.715834 0.0564016 -0.634318 2.57067 0.152453 -0.636816 4.21568 0.161626 -15.9506 13.8343 -1.91932 16.2532 0.910411 -6.29466 66.516 2.23615 0.342893 122.431 38.5344 -47.6428 3.18055e-015 -6.36111e-015 3.18055e-015 -20.4251 84.1872 15.6993 -7.09223e-007 1.29698e-006 -2.99999 8.03008 -4.95138 0.697637 -70.869 -6.12368 4.33685 -122.444 39.7933 45.5121 2.8249e-030 -1.27222e-014 1.27222e-014 20.4027 84.1899 -15.6736 -8.13489e-007 -7.53161e-006 3 -8.03011 -4.9514 -0.697625 176.412 -3.05379 5.30817 180 7.01531e-015 178.854 176.903 12.9157 179.945 3.73657e-006 3.15474e-006 0.214158 -20.4692 70.1328 21.4909 8.13649 25.2327 -3.48774 177.13 -5.6771 1.32889 4.54188e-006 -4.6773e-006 -1.16853 -2.26146 -8.79259 0.0552204 -1.5855e-006 5.05481e-006 -0.119557 19.1869 68.773 -20.1775 -8.13649 25.2327 3.48774 
53.3669 84.3069 3.30082 2.62176 -10.8611 -0.154959 -0.320121 -0.723482 0.0562583 -0.640559 2.55536 0.151794 -0.643052 4.20037 0.162004 -15.8935 13.9916 -1.90464 16.2213 0.747553 -6.2591 66.5779 2.23012 0.330913 122.379 38.4569 -47.5567 -3.18055e-015 3.18055e-015 9.54166e-015 -20.2164 84.1227 15.4899 -7.09223e-007 1.29698e-006 -2.99999 8.03008 -4.95138 0.697637 -70.8789 -6.14339 4.347 -122.488 39.8093 45.5601 3.18055e-015 -1.90833e-014 1.74931e-014 20.2721 84.1493 -15.5422 -8.13489e-007 -7.53161e-006 3 -8.03011 -4.9514 -0.697625 176.406 -3.04375 5.31121 180 7.01531e-015 178.855 176.901 12.9222 179.945 3.73657e-006 3.15474e-006 0.214288 -20.4702 70.1344 21.4921 8.13649 25.2327 -3.48774 177.127 -5.66969 1.32885 4.54188e-006 -4.6773e-006 -1.16832 -2.26526 -8.7944 0.0546244 -1.5855e-006 5.05481e-006 -0.119573 19.1867 68.7727 -20.1773 -8.13649 25.2327 3.48774 
53.3661 84.3087 3.29919 2.62677 -10.856 -0.152146 -0.322999 -0.730365 0.0561228 -0.646313 2.54159 0.151208 -0.648801 4.1866 0.162344 -15.8381 14.1371 -1.89114 16.1897 0.59877 -6.22577 66.6319 2.22106 0.31844 122.325 38.3847 -47.4666 6.36111e-015 -9.54166e-015 -6.36111e-015 -20.0068 84.0563 15.2797 -7.09223e-007 1.29698e-006 -2.99999 8.03008 -4.95138 0.697637 -70.8844 -6.16153 4.3562 -122.524 39.826 45.6002 -7.06225e-031 6.36111e-015 6.36111e-015 20.1545 84.1122 -15.4239 -8.13489e-007 -7.53161e-006 3 -8.03011 -4.9514 -0.697625 176.401 -3.03851 5.31405 180 7.01531e-015 178.855 176.899 12.9237 179.946 3.73657e-006 3.15474e-006 0.214349 -20.4685 70.1332 21.4904 8.13649 25.2327 -3.48774 177.124 -5.66419 1.32798 4.54188e-006 -4.6773e-006 -1.16813 -2.2695 -8.79589 0.0539586 -1.5855e-006 5.05481e-006 -0.119588 19.1865 68.7724 -20.177 -8.13649 25.2327 3.48774 
53.3665 84.3056 3.30167 2.63126 -10.8526 -0.149288 -0.325558 -0.736283 0.0559971 -0.651435 2.52975 0.150714 -0.653918 4.17476 0.162637 -15.7851 14.2665 -1.87932 16.1591 0.46818 -6.19541 66.6763 2.20825 0.305369 122.268 38.3181 -47.372 1.27222e-014 1.27222e-014 6.36111e-015 -19.8047 83.9906 15.077 -7.09223e-007 1.29698e-006 -2.99999 8.03008 -4.95138 0.697637 -70.8851 -6.17824 4.36449 -122.556 39.8433 45.6335 3.18055e-015 -1.27222e-014 1.27222e-014 20.0507 84.079 -15.3196 -8.13489e-007 -7.53161e-006 3 -8.03011 -4.9514 -0.697625 176.396 -3.03874 5.3166 180 7.01531e-015 178.855 176.897 12.9193 179.946 3.73657e-006 3.15474e-006 0.21433 -20.4637 70.1288 21.4854 8.13649 25.2327 -3.48774 177.123 -5.66078 1.32615 4.54188e-006 -4.6773e-006 -1.16797 -2.2742 -8.79704 0.0532197 -1.5855e-006 5.05481e-006 -0.119604 19.1861 68.772 -20.1766 -8.13649 25.2327 3.48774 
53.3665 84.3061 3.30938 2.63511 -10.8511 -0.146349 -0.327726 -0.741037 0.0558833 -0.655776 2.52024 0.150334 -0.658255 4.16525 0.162876 -15.7354 14.3756 -1.86968 16.13 0.359903 -6.1688 66.7089 2.19096 0.291596 122.206 38.2578 -47.2722 1.27222e-014 1.90833e-014 6.36111e-015 -19.6176 83.9282 14.8894 -7.09223e-007 1.29698e-006 -2.99999 8.03008 -4.95138 0.697637 -70.8802 -6.19366 4.37192 -122.581 39.8615 45.6609 -1.90833e-014 1.90833e-014 -1.59028e-014 19.9615 84.0502 -15.2299 -8.13489e-007 -7.53161e-006 3 -8.03011 -4.9514 -0.697625 176.393 -3.04507 5.31879 180 7.01531e-015 178.855 176.896 12.9083 179.946 3.73657e-006 3.15474e-006 0.21422 -20.4554 70.1208 21.4767 8.13649 25.2327 -3.48774 177.122 -5.65965 1.32325 4.54188e-006 -4.6773e-006 -1.16783 -2.2794 -8.79782 0.0524042 -1.5855e-006 5.05481e-006 -0.119619 19.1856 68.7715 -20.176 -8.13649 25.2327 3.48774 
53.3686 84.3041 3.30047 2.63853 -10.8514 -0.143183 -0.329646 -0.744906 0.0557777 -0.659663 2.5125 0.150044 -0.662139 4.15751 0.163074 -15.6856 14.4722 -1.86159 16.0996 0.265719 -6.14409 66.7319 2.16772 0.27604 122.144 38.2035 -47.1718 2.22639e-014 1.59028e-014 1.90833e-014 -19.4188 83.8603 14.69 -7.09223e-007 1.29698e-006 -2.99999 8.03008 -4.95138 0.697637 -70.8689 -6.20712 4.37808 -122.601 39.8802 45.6806 -1.27222e-014 9.54166e-015 -1.11319e-014 19.8853 84.0254 -15.1533 -8.13489e-007 -7.53161e-006 3 -8.03011 -4.9514 -0.697625 176.391 -3.05875 5.32067 180 7.01531e-015 178.854 176.895 12.8888 179.946 3.73657e-006 3.15474e-006 0.214006 -20.4427 70.1081 21.4631 8.13649 25.2327 -3.48774 177.123 -5.66071 1.31876 4.54188e-006 -4.6773e-006 -1.16772 -2.2857 -8.79834 0.0514221 -1.5855e-006 5.05481e-006 -0.119635 19.1849 68.7706 -20.1752 -8.13649 25.2327 3.48774 
53.3779 84.3024 3.31947 2.64181 -10.8532 -0.139727 -0.33151 -0.748325 0.0556752 -0.663504 2.50566 0.149805 -0.665977 4.15067 0.163252 -15.632 14.5672 -1.854 16.0654 0.174845 -6.11905 66.7492 2.13832 0.258028 122.089 38.1546 -47.0747 0 6.36111e-015 -0 -19.1817 83.7769 14.4522 -7.09223e-007 1.29698e-006 -2.99999 8.03008 -4.95138 0.697637 -70.851 -6.21795 4.38267 -122.612 39.8991 45.6902 -1.27222e-014 1.90833e-014 1.59028e-015 19.8195 84.0038 -15.0872 -8.13489e-007 -7.53161e-006 3 -8.03011 -4.9514 -0.697625 176.389 -3.07992 5.32237 180 7.0153e-015 178.853 176.895 12.86 179.945 3.73657e-006 3.15474e-006 0.213692 -20.4251 70.0903 21.4444 8.13649 25.2327 -3.48774 177.125 -5.66369 1.31246 4.54188e-006 -4.6773e-006 -1.16763 -2.29355 -8.79875 0.0502111 -1.5855e-006 5.05481e-006 -0.119651 19.1837 68.7693 -20.1739 -8.13649 25.2327 3.48774 
53.3746 84.3013 3.31907 2.64496 -10.8565 -0.136067 -0.333315 -0.75133 0.055576 -0.667275 2.49965 0.14961 -0.669746 4.14466 0.163408 -15.5754 14.6605 -1.84682 16.028 0.0875543 -6.09384 66.7615 2.10388 0.23807 122.039 38.1107 -46.9795 3.18055e-015 6.36111e-015 -9.54166e-015 -18.9141 83.6799 14.1838 -7.09223e-007 1.29698e-006 -2.99999 8.03008 -4.95138 0.697637 -70.8274 -6.22632 4.38578 -122.615 39.9183 45.6896 -3.18055e-015 -3.18055e-015 4.77083e-015 19.7637 83.9853 -15.0312 -8.13489e-007 -7.53161e-006 3 -8.03011 -4.9514 -0.697625 176.388 -3.10761 5.32393 180 7.0153e-015 178.853 176.896 12.8235 179.945 3.73657e-006 3.15474e-006 0.213292 -20.4035 70.0684 21.4214 8.13649 25.2327 -3.48774 177.128 -5.66849 1.30463 4.54188e-006 -4.6773e-006 -1.16755 -2.30267 -8.799 0.0488098 -1.5855e-006 5.05481e-006 -0.119666 19.1822 68.7676 -20.1723 -8.13649 25.2327 3.48774 
53.3662 84.3061 3.32031 2.64798 -10.8613 -0.132286 -0.335055 -0.753954 0.05548 -0.670956 2.4944 0.149453 -0.673425 4.13941 0.163543 -15.5167 14.752 -1.83994 15.9879 0.00412019 -6.06862 66.7692 2.06551 0.216676 121.992 38.0715 -46.8846 3.18055e-015 0 3.18055e-015 -18.6233 83.5708 13.8923 -7.09223e-007 1.29698e-006 -2.99999 8.03008 -4.95138 0.697637 -70.7991 -6.2324 4.38755 -122.609 39.9377 45.6787 -1.59028e-014 9.54166e-015 -1.74931e-014 19.7173 83.9698 -14.9845 -8.13489e-007 -7.53161e-006 3 -8.03011 -4.9514 -0.697625 176.387 -3.14085 5.3254 180 7.0153e-015 178.852 176.896 12.7806 179.945 3.73657e-006 3.15474e-006 0.212819 -20.3785 70.0429 21.3948 8.13649 25.2327 -3.48774 177.131 -5.67499 1.29557 4.54188e-006 -4.6773e-006 -1.1675 -2.31279 -8.79906 0.0472566 -1.5855e-006 5.05481e-006 -0.119682 19.1805 68.7656 -20.1704 -8.13649 25.2327 3.48774 
53.3727 84.3031 3.31606 2.65088 -10.8673 -0.12847 -0.336728 -0.756233 0.0553871 -0.674522 2.48983 0.149331 -0.67699 4.13484 0.163658 -15.4565 14.8417 -1.83324 15.9458 -0.0751831 -6.04355 66.7729 2.02433 0.194354 121.946 38.0368 -46.7887 -5.29669e-031 -3.18055e-015 -9.54166e-015 -18.3164 83.4511 13.5845 -7.09223e-007 1.29698e-006 -2.99999 8.03008 -4.95138 0.697637 -70.7669 -6.23637 4.3881 -122.595 39.9574 45.6578 -1.58901e-030 9.54166e-015 9.54166e-015 19.6796 83.9572 -14.9466 -8.13489e-007 -7.53161e-006 3 -8.03011 -4.9514 -0.697625 176.386 -3.17867 5.3268 180 7.0153e-015 178.851 176.897 12.7326 179.944 3.73657e-006 3.15474e-006 0.212285 -20.351 70.0146 21.3653 8.13649 25.2327 -3.48774 177.135 -5.68312 1.28556 4.54188e-006 -4.6773e-006 -1.16745 -2.32365 -8.79891 0.0455901 -1.5855e-006 5.05481e-006 -0.119697 19.1785 68.7634 -20.1683 -8.13649 25.2327 3.48774 
53.3732 84.3028 3.31583 2.65368 -10.8745 -0.124705 -0.338329 -0.758202 0.0552975 -0.677951 2.48589 0.149236 -0.680418 4.1309 0.163753 -15.3956 14.9294 -1.82663 15.9022 -0.150082 -6.01879 66.7732 1.98146 0.171614 121.9 38.0061 -46.6902 3.18055e-015 -3.18055e-015 -1.59028e-014 -17.9997 83.3226 13.2668 -7.09223e-007 1.29698e-006 -2.99999 8.03008 -4.95138 0.697637 -70.7316 -6.23839 4.38754 -122.572 39.9775 45.6266 -1.59028e-014 1.90833e-014 -1.43125e-014 19.6502 83.9472 -14.9172 -8.13489e-007 -7.53161e-006 3 -8.03011 -4.9514 -0.697625 176.386 -3.22008 5.3282 180 7.01529e-015 178.849 176.898 12.681 179.943 3.73657e-006 3.15474e-006 0.211705 -20.3216 69.9842 21.3339 8.13649 25.2327 -3.48774 177.14 -5.69275 1.2749 4.54188e-006 -4.6773e-006 -1.16742 -2.33496 -8.79852 0.0438488 -1.5855e-006 5.05481e-006 -0.119713 19.1765 68.7612 -20.1661 -8.13649 25.2327 3.48774 
